<svg xmlns="http://www.w3.org/2000/svg" xmlns:xlink="http://www.w3.org/1999/xlink" width="30.458" height="40.611" viewBox="0 0 30.458 40.611"><defs><style>.a{fill:url(#a);}</style><linearGradient id="a" x1="0.674" y1="-0.194" x2="-0.725" y2="1.881" gradientUnits="objectBoundingBox"><stop offset="0" stop-color="#845afc"/><stop offset="0.331" stop-color="#7956de"/><stop offset="1" stop-color="#2b1271"/></linearGradient></defs><path class="a" d="M17.767,10.787V0H1.9A1.9,1.9,0,0,0,0,1.9v36.8a1.9,1.9,0,0,0,1.9,1.9H28.555a1.9,1.9,0,0,0,1.9-1.9V12.691H19.671A1.909,1.909,0,0,1,17.767,10.787Zm5.076,18.719a.955.955,0,0,1-.952.952H8.566a.955.955,0,0,1-.952-.952v-.635a.955.955,0,0,1,.952-.952H21.892a.955.955,0,0,1,.952.952Zm0-5.076a.955.955,0,0,1-.952.952H8.566a.955.955,0,0,1-.952-.952V23.8a.955.955,0,0,1,.952-.952H21.892a.955.955,0,0,1,.952.952Zm0-5.711v.635a.955.955,0,0,1-.952.952H8.566a.955.955,0,0,1-.952-.952v-.635a.955.955,0,0,1,.952-.952H21.892A.955.955,0,0,1,22.844,18.719Zm7.615-9.05v.484H20.306V0h.484a1.9,1.9,0,0,1,1.348.555L29.9,8.328A1.9,1.9,0,0,1,30.458,9.669Z"/></svg>