<svg xmlns="http://www.w3.org/2000/svg" width="20.305" height="25.244" viewBox="0 0 20.305 25.244"><defs><style>.a{fill:#e1e3e9;stroke:#2a2d40;stroke-width:0.9px;}</style></defs><path class="a" d="M13.7,15.341a1.807,1.807,0,0,0-1.213,3.165v1.686a1.213,1.213,0,0,0,2.426,0V18.506A1.807,1.807,0,0,0,13.7,15.341Zm6.064-4.851h-9.7V8.064a3.638,3.638,0,0,1,6.21-2.583,3.736,3.736,0,0,1,.946,1.674,1.215,1.215,0,1,0,2.353-.606,6.173,6.173,0,0,0-1.589-2.777A6.064,6.064,0,0,0,7.638,8.064V10.49A3.638,3.638,0,0,0,4,14.128v8.49a3.638,3.638,0,0,0,3.638,3.638H19.767a3.638,3.638,0,0,0,3.638-3.638v-8.49A3.638,3.638,0,0,0,19.767,10.49ZM20.98,22.618a1.213,1.213,0,0,1-1.213,1.213H7.638a1.213,1.213,0,0,1-1.213-1.213v-8.49a1.213,1.213,0,0,1,1.213-1.213H19.767a1.213,1.213,0,0,1,1.213,1.213Z" transform="translate(-3.55 -1.462)"/></svg>