<svg xmlns="http://www.w3.org/2000/svg" width="20.334" height="25.167" viewBox="0 0 20.334 25.167"><defs><style>.a{fill:#e1e3e9;stroke:#2a2d40;}</style></defs><path class="a" d="M13.667,15.292a1.8,1.8,0,0,0-1.208,3.154v1.68a1.208,1.208,0,0,0,2.417,0v-1.68a1.8,1.8,0,0,0-1.208-3.154Zm6.042-4.833V8.042a6.042,6.042,0,1,0-12.084,0v2.417A3.625,3.625,0,0,0,4,14.084v8.459a3.625,3.625,0,0,0,3.625,3.625H19.709a3.625,3.625,0,0,0,3.625-3.625V14.084A3.625,3.625,0,0,0,19.709,10.459ZM10.042,8.042a3.625,3.625,0,1,1,7.25,0v2.417h-7.25Zm10.875,14.5a1.208,1.208,0,0,1-1.208,1.208H7.625a1.208,1.208,0,0,1-1.208-1.208V14.084a1.208,1.208,0,0,1,1.208-1.208H19.709a1.208,1.208,0,0,1,1.208,1.208Z" transform="translate(-3.5 -1.5)"/></svg>