<svg xmlns="http://www.w3.org/2000/svg" width="72.435" height="72.435" viewBox="0 0 72.435 72.435"><defs><style>.a,.c{fill:none;}.b{fill:#fff;}.c{stroke:#fff;stroke-linecap:round;stroke-linejoin:round;stroke-width:2px;}</style></defs><g transform="translate(-151.782 -629.782)"><g transform="translate(151.782 629.782)"><path class="a" d="M0,0H72.435V72.435H0Z"/><path class="b" d="M47.705,9.455a1.4,1.4,0,0,1-.694-.181A34.533,34.533,0,0,0,30.2,5.018,34.529,34.529,0,0,0,13.389,9.274,1.513,1.513,0,1,1,11.94,6.618,38.4,38.4,0,0,1,48.4,6.588a1.528,1.528,0,0,1-.694,2.867ZM4.515,25.3a1.573,1.573,0,0,1-.875-.272,1.5,1.5,0,0,1-.362-2.113A31.2,31.2,0,0,1,14.6,13.046a34.839,34.839,0,0,1,31.117-.03,31.323,31.323,0,0,1,11.318,9.809,1.516,1.516,0,0,1-2.475,1.751A28.334,28.334,0,0,0,44.325,15.7a31.8,31.8,0,0,0-28.371.03A28.632,28.632,0,0,0,5.693,24.666a1.316,1.316,0,0,1-1.177.634ZM23.379,61.729a1.416,1.416,0,0,1-1.056-.453,30.511,30.511,0,0,1-6.066-7.968,26.792,26.792,0,0,1-3.169-13.1c0-8.964,7.666-16.268,17.083-16.268s17.083,7.3,17.083,16.268a1.509,1.509,0,1,1-3.018,0c0-7.3-6.308-13.25-14.065-13.25S16.105,32.906,16.105,40.21a23.645,23.645,0,0,0,2.807,11.62,28.568,28.568,0,0,0,5.584,7.3,1.55,1.55,0,0,1,0,2.143,1.655,1.655,0,0,1-1.117.453Zm21.64-5.584a16.253,16.253,0,0,1-9.356-2.686,16.07,16.07,0,0,1-7.183-13.25,1.509,1.509,0,0,1,3.018,0,12.981,12.981,0,0,0,5.855,10.745A13.234,13.234,0,0,0,45.019,53.1a19.946,19.946,0,0,0,3.139-.3,1.516,1.516,0,1,1,.513,2.988,20.61,20.61,0,0,1-3.652.362Zm-6.066,6.217a1.766,1.766,0,0,1-.392-.06,23.548,23.548,0,0,1-11.227-6.338A22.022,22.022,0,0,1,20.783,40.21a9.1,9.1,0,0,1,9.3-8.873,9.1,9.1,0,0,1,9.3,8.873,6.293,6.293,0,0,0,12.555,0c0-11.378-9.809-20.614-21.882-20.614A22.034,22.034,0,0,0,10.1,31.759,19.416,19.416,0,0,0,8.318,40.21a29.993,29.993,0,0,0,2.022,10.9,1.473,1.473,0,0,1-.875,1.932,1.5,1.5,0,0,1-1.932-.875A33.624,33.624,0,0,1,5.33,40.21a22.675,22.675,0,0,1,2.052-9.779A25.047,25.047,0,0,1,30.049,16.547c13.733,0,24.9,10.594,24.9,23.632a9.306,9.306,0,0,1-18.592,0,6.078,6.078,0,0,0-6.278-5.855A6.078,6.078,0,0,0,23.8,40.179a19.007,19.007,0,0,0,5.644,13.612,20.523,20.523,0,0,0,9.869,5.584,1.5,1.5,0,0,1,1.056,1.841,1.473,1.473,0,0,1-1.419,1.147Z" transform="translate(6.048 4.036)"/></g><path class="c" d="M-628.82,515.567s-1.513-11.351-13.116-13.873-17.909,8.954-17.909,8.954" transform="translate(833 158)"/></g></svg>