<svg xmlns="http://www.w3.org/2000/svg" width="25.557" height="29.817" viewBox="0 0 25.557 29.817"><defs><style>.a{fill:#40acff;}</style></defs><path class="a" d="M26.652,8.724c-5.1,0-8.519,3.418-8.519,8.519v2.13h4.26v-2.13c0-3.844,2.977-4.26,4.26-4.26s4.26.415,4.26,4.26v2.13h4.26v-2.13C35.171,12.142,31.753,8.724,26.652,8.724ZM16,21.5a2.136,2.136,0,0,0-2.13,2.13V36.411A2.136,2.136,0,0,0,16,38.541H37.3a2.136,2.136,0,0,0,2.13-2.13V23.632A2.136,2.136,0,0,0,37.3,21.5Zm1.065,2.13A1.063,1.063,0,0,1,18.133,24.7V35.346a1.065,1.065,0,1,1-2.13,0V24.7A1.063,1.063,0,0,1,17.068,23.632Zm9.584.466a3.781,3.781,0,0,1,3.793,3.793,3.847,3.847,0,0,1-1.663,3.195v3.195a2.13,2.13,0,1,1-4.26,0V31.087a3.838,3.838,0,0,1-1.663-3.195A3.781,3.781,0,0,1,26.652,24.1Z" transform="translate(-13.873 -8.724)"/></svg>